<?xml version="1.0" encoding="utf-8"?>
<!-- Generator: Adobe Illustrator 17.0.0, SVG Export Plug-In . SVG Version: 6.00 Build 0)  -->
<!DOCTYPE svg PUBLIC "-//W3C//DTD SVG 1.1//EN" "http://www.w3.org/Graphics/SVG/1.1/DTD/svg11.dtd">
<svg version="1.1" id="Layer_1" xmlns="http://www.w3.org/2000/svg" xmlns:xlink="http://www.w3.org/1999/xlink" x="0px" y="0px"
	 width="960px" height="317.034px" viewBox="0 0 960 317.034" enable-background="new 0 0 960 317.034" xml:space="preserve">
<g>
	<g>
		<g>
			<g opacity="0.7">
				<path fill="#FFFFFF" d="M588.415,40.667c0,0-1.406-1.446-4.042-4.157c-0.675-0.614-1.429-1.3-2.259-2.055
					c-0.413-0.375-0.845-0.767-1.296-1.176c-0.225-0.204-0.454-0.412-0.688-0.625c-0.251-0.2-0.507-0.404-0.768-0.612
					c-1.034-0.836-2.146-1.734-3.332-2.693c-1.217-0.915-2.558-1.826-3.942-2.82c-5.664-3.782-12.889-7.926-21.855-10.931
					c-1.12-0.369-2.257-0.744-3.412-1.125c-1.162-0.358-2.364-0.652-3.567-0.996c-2.393-0.732-4.945-1.168-7.516-1.757
					c-5.211-0.914-10.734-1.605-16.536-1.807c-5.801-0.185-11.856-0.037-18.093,0.587c-6.233,0.686-12.624,1.837-19.11,3.393
					c-6.496,1.522-13.039,3.651-19.59,6.155c-1.626,0.662-3.294,1.237-4.908,1.978c-1.625,0.713-3.257,1.429-4.898,2.148
					c-3.225,1.569-6.493,3.119-9.7,4.868c-12.908,6.861-25.336,15.558-36.915,25.766c-11.416,10.051-21.699,21.905-29.017,35.287
					c-7.372,13.378-11.629,28.24-13.107,43.416c-0.778,7.589-0.944,15.245-0.872,22.909c0.076,7.668,0.354,15.349,0.244,23.103
					c-0.148,7.738-0.594,15.652-2.914,23.434c-1.13,3.875-2.861,7.66-5.092,11.082c-2.253,3.416-5.075,6.394-8.148,8.81
					c-0.754,0.63-1.567,1.151-2.345,1.724c-0.78,0.546-1.447,0.97-2.172,1.458c-1.421,0.945-2.832,1.884-4.232,2.815
					c-2.812,1.858-5.581,3.688-8.304,5.488c-5.446,3.579-10.707,7.036-15.759,10.355c-10.104,6.602-19.382,12.616-27.197,18.314
					c-3.897,2.853-7.456,5.598-10.421,8.356c-2.934,2.758-5.273,5.549-6.481,8.244c-0.59,1.348-0.877,2.653-0.984,3.911
					c-0.011,1.261,0.086,2.479,0.435,3.619c0.638,2.283,1.665,4.228,2.6,5.747c0.939,1.524,1.741,2.674,2.312,3.431
					c0.561,0.764,0.851,1.159,0.851,1.159l-2.943,2.415c0,0-0.334-0.396-0.981-1.164c-0.654-0.759-1.596-1.926-2.748-3.544
					c-1.141-1.62-2.501-3.741-3.544-6.673c-0.543-1.453-0.851-3.181-0.936-5.051c0.004-1.879,0.323-3.891,1.055-5.819
					c1.484-3.85,4.151-7.25,7.206-10.479c3.097-3.201,6.647-6.304,10.534-9.43c7.786-6.232,16.817-12.707,26.646-19.765
					c4.926-3.497,10.057-7.14,15.368-10.91c2.646-1.889,5.336-3.809,8.068-5.759c1.366-0.981,2.742-1.97,4.128-2.966
					c0.673-0.49,1.433-1.016,2.043-1.481c0.585-0.473,1.22-0.9,1.773-1.407c2.282-1.96,4.295-4.185,5.889-6.745
					c1.569-2.575,2.816-5.42,3.636-8.548c1.703-6.234,2.007-13.32,1.94-20.649c-0.266-14.703-1.633-30.647-0.186-47.07
					c0.708-8.199,2.076-16.504,4.386-24.633c1.144-4.066,2.539-8.076,4.144-12.004c1.594-3.933,3.42-7.776,5.451-11.498
					c4.034-7.463,8.849-14.466,14.193-20.914c5.334-6.494,11.142-12.361,17.324-17.888c1.569-1.434,3.065-2.683,4.578-3.951
					l1.133-0.952l1.259-0.997l2.391-1.882l2.385-1.876l2.444-1.787c1.642-1.169,3.227-2.408,4.905-3.508
					c1.665-1.117,3.326-2.23,4.98-3.34c1.698-1.044,3.39-2.084,5.077-3.121c1.669-1.064,3.425-1.974,5.128-2.953
					c0.857-0.481,1.712-0.961,2.566-1.44c0.871-0.448,1.74-0.895,2.607-1.342c1.748-0.866,3.438-1.828,5.214-2.602
					c1.759-0.805,3.511-1.605,5.254-2.403c1.774-0.729,3.539-1.455,5.296-2.177c1.745-0.748,3.549-1.329,5.306-1.995
					c7.083-2.519,14.151-4.63,21.177-6.107c7.025-1.473,13.963-2.393,20.706-2.883c6.754-0.404,13.306-0.342,19.569,0.151
					c6.263,0.559,12.207,1.626,17.783,2.925c2.761,0.783,5.478,1.412,8.035,2.341c1.284,0.441,2.563,0.829,3.789,1.309
					c1.22,0.497,2.421,0.987,3.604,1.469c9.438,3.92,16.933,8.87,22.584,13.44c1.388,1.181,2.724,2.266,3.93,3.342
					c1.167,1.12,2.26,2.169,3.278,3.146c0.252,0.245,0.5,0.486,0.742,0.722c0.231,0.254,0.458,0.503,0.68,0.747
					c0.442,0.488,0.867,0.956,1.272,1.403c0.804,0.893,1.534,1.705,2.188,2.432c2.339,2.971,3.586,4.556,3.586,4.556L588.415,40.667
					z"/>
			</g>
		</g>
		<g>
			<path opacity="0.7" fill="#FFFFFF" d="M595.917,46.81c42.275,51.515,24.001,131.303-37.735,181.966
				c-88.21,72.388-151.498-9.038-188.127,26.615c-60.84,59.22-70.134,74.978-90.07,50.685"/>
		</g>
		<g>
			<path fill="#FFFFFF" d="M333.049,33.043c0,0,0.505,0.731,1.453,2.102c0.241,0.367,0.492,0.671,0.802,1.201
				c0.307,0.538,0.643,1.126,1.005,1.76c0.346,0.635,0.765,1.324,1.11,2.05c0.313,0.722,0.646,1.49,0.997,2.301
				c1.315,3.263,2.533,7.428,2.811,12.29c0.273,4.843-0.304,10.356-2.288,15.881c-1.993,5.513-5.444,10.952-10.175,15.494
				c-0.571,0.587-1.243,1.075-1.866,1.619l-0.956,0.797l-0.48,0.399c0.067-0.052-0.162,0.127-0.158,0.124l-0.061,0.041l-0.122,0.082
				l-0.244,0.164c-1.332,0.861-2.506,1.807-4.137,2.64c-3.041,1.812-6.253,2.969-9.654,3.935c-3.405,0.914-6.979,1.276-10.588,1.315
				c-3.617-0.038-7.253-0.626-10.801-1.638c-3.527-1.096-6.921-2.679-10.095-4.672l-2.293-1.631l-0.572-0.411l-0.531-0.463
				l-1.062-0.928c-0.712-0.616-1.429-1.229-2.05-1.939l-0.975-1.024l-0.487-0.513l-0.244-0.257l-0.122-0.129l-0.061-0.064
				c-0.052-0.062,0.03,0.048-0.132-0.155l-1.637-2.104c-0.269-0.368-0.553-0.662-0.811-1.091l-0.781-1.236l-0.776-1.243
				l-0.386-0.624l-0.318-0.636l-1.258-2.55c-1.501-3.478-2.587-7.143-3.088-10.893c-0.428-3.749-0.443-7.539,0.12-11.239
				c0.639-3.674,1.637-7.281,3.209-10.6c1.593-3.289,3.472-6.441,5.857-9.087c1.102-1.408,2.431-2.566,3.679-3.785l0.236-0.226
				l0.118-0.113l0.059-0.056c-0.016,0.007,0.35-0.275,0.222-0.176l0.459-0.363l0.914-0.722l0.908-0.718
				c0.307-0.239,0.573-0.473,0.982-0.721c0.758-0.484,1.511-0.965,2.258-1.442c0.376-0.227,0.753-0.491,1.128-0.683l1.121-0.558
				c0.748-0.367,1.491-0.732,2.227-1.094c0.759-0.309,1.526-0.585,2.282-0.873c3.023-1.165,6.113-1.777,9.092-2.212
				c5.993-0.721,11.608-0.026,16.35,1.325c4.781,1.308,8.619,3.472,11.536,5.495c0.718,0.529,1.397,1.03,2.036,1.501
				c0.62,0.495,1.151,1.018,1.67,1.476c0.508,0.469,0.979,0.903,1.409,1.301c0.425,0.403,0.752,0.826,1.075,1.175
				c1.253,1.431,1.921,2.194,1.921,2.194L333.049,33.043z M324.881,39.408c0,0-0.527-0.552-1.514-1.586
				c-0.252-0.252-0.501-0.567-0.833-0.853c-0.336-0.282-0.697-0.594-1.081-0.938c-0.392-0.334-0.785-0.729-1.252-1.09
				c-0.482-0.343-0.994-0.704-1.523-1.104c-2.167-1.504-4.936-3.23-8.476-4.418c-3.512-1.206-7.756-1.977-12.396-1.666
				c-2.302,0.232-4.721,0.558-7.109,1.352c-0.6,0.191-1.204,0.384-1.814,0.579c-0.588,0.255-1.18,0.511-1.777,0.77l-0.904,0.385
				c-0.299,0.131-0.545,0.293-0.823,0.436c-0.547,0.291-1.099,0.585-1.654,0.88c-0.266,0.114-0.597,0.364-0.911,0.578l-0.952,0.658
				l-0.958,0.662l-0.481,0.333c-0.166,0.128,0.158-0.128,0.107-0.086l-0.049,0.042l-0.099,0.084l-0.198,0.169
				c-1.044,0.915-2.194,1.76-3.134,2.838c-2.06,1.992-3.753,4.416-5.256,7.005c-0.344,0.668-0.688,1.339-1.035,2.013
				c-0.341,0.678-0.572,1.407-0.87,2.113l-0.428,1.072l-0.323,1.111c-0.201,0.746-0.459,1.486-0.624,2.248
				c-0.684,3.053-0.923,6.246-0.767,9.466c0.223,3.219,0.953,6.42,2.053,9.523l0.984,2.268l0.247,0.568l0.293,0.52l0.582,1.046
				l0.578,1.054c0.173,0.35,0.488,0.723,0.725,1.083l1.532,2.181l1.565,1.802c0.522,0.657,1.15,1.207,1.764,1.772l0.917,0.851
				l0.458,0.427l0.499,0.377l1.995,1.509c2.773,1.843,5.758,3.38,8.925,4.355c3.174,0.921,6.431,1.476,9.68,1.532
				c0.81,0.018,1.618-0.05,2.423-0.082l1.204-0.067l1.189-0.18c0.788-0.134,1.586-0.2,2.357-0.385
				c0.767-0.2,1.532-0.399,2.293-0.598c0.772-0.158,1.482-0.513,2.219-0.757c0.727-0.278,1.468-0.508,2.145-0.885
				c0.689-0.343,1.374-0.683,2.056-1.023c0.677-0.341,1.253-0.781,1.876-1.159c1.205-0.685,2.479-1.78,3.688-2.75l0.228-0.185
				l0.114-0.092l0.057-0.046c0.042-0.032-0.152,0.112-0.047,0.028l0.386-0.388l0.768-0.769c0.497-0.523,1.045-0.985,1.489-1.54
				c3.737-4.284,6.023-9.21,7.152-13.878c1.103-4.702,1.012-9.144,0.388-12.895c-0.545-3.787-1.853-6.86-3.005-9.272
				c-0.304-0.598-0.593-1.165-0.864-1.698c-0.283-0.507-0.584-0.904-0.836-1.317c-0.254-0.404-0.489-0.777-0.704-1.119
				c-0.218-0.347-0.578-0.752-0.814-1.066c-1.033-1.308-1.585-2.005-1.585-2.005L324.881,39.408z"/>
		</g>
	</g>
	<g>
		<path fill="#FFFFFF" d="M653.55,201.725h-2.578V90.407h2.578V201.725z"/>
		<path fill="#FFFFFF" d="M672.18,201.725h-2.578V90.407h2.578V201.725z"/>
		<path fill="#B0BB00" d="M703.816,181.922V101.07c6.639-0.703,16.013-1.055,28.122-1.055c10.077,0,17.01,1.798,20.799,5.39
			c3.789,3.594,5.684,10.312,5.684,20.155c0,9.921-1.816,16.679-5.449,20.271c-3.632,3.594-10.176,5.39-19.627,5.39
			c-5.858,0-11.796-0.352-17.811-1.055v31.755H703.816z M715.534,141.145h16.17c5.702-0.077,9.609-1.172,11.718-3.281
			c2.109-2.109,3.164-6.21,3.164-12.303c0-6.093-1.055-10.195-3.164-12.304c-2.108-2.109-6.016-3.164-11.718-3.164
			c-7.812,0-13.202,0.041-16.17,0.117V141.145z"/>
		<path fill="#B0BB00" d="M766.154,130.13c4.14-4.608,11.17-6.914,21.092-6.914c9.92,0,16.95,2.305,21.092,6.914
			c4.14,4.61,6.21,12.382,6.21,23.318c0,10.938-2.07,18.671-6.21,23.201c-4.142,4.532-11.172,6.797-21.092,6.797
			c-9.922,0-16.952-2.265-21.092-6.797c-4.142-4.529-6.211-12.263-6.211-23.201C759.943,142.512,762.013,134.74,766.154,130.13z
			 M799.433,137.16c-2.188-2.889-6.251-4.335-12.187-4.335c-5.938,0-10,1.446-12.187,4.335c-2.188,2.891-3.281,8.32-3.281,16.288
			c0,7.891,1.094,13.282,3.281,16.17c2.187,2.892,6.249,4.336,12.187,4.336c5.936,0,9.998-1.444,12.187-4.336
			c2.186-2.889,3.28-8.279,3.28-16.17C802.713,145.48,801.618,140.051,799.433,137.16z"/>
		<path fill="#B0BB00" d="M830.249,124.74l0.703,8.788c8.982-6.873,17.419-10.312,25.311-10.312c5.077,0,8.924,1.348,11.542,4.042
			c2.616,2.695,3.925,6.621,3.925,11.776v42.887h-11.366v-39.606c0-3.592-0.526-6.073-1.581-7.44
			c-1.055-1.366-2.95-2.051-5.684-2.051c-2.97,0-5.938,0.665-8.905,1.992c-2.97,1.329-7.03,3.515-12.187,6.562v40.543h-11.366
			V124.74H830.249z"/>
		<path fill="#B0BB00" d="M934.066,130.833l-8.085,0.82c1.327,2.657,1.992,5.976,1.992,9.96c0,6.485-1.856,11.152-5.566,14.002
			c-3.711,2.853-10.136,4.277-19.275,4.277c-4.219,0-8.008-0.311-11.366-0.938c-1.25,1.641-1.582,3.438-0.996,5.391
			c0.586,1.953,2.128,3.125,4.629,3.515l21.092,3.281c5.39,0.782,9.236,2.461,11.542,5.039c2.303,2.577,3.456,6.327,3.456,11.248
			c0,6.797-1.991,11.483-5.976,14.062s-11.211,3.867-21.678,3.867c-10.546,0-17.852-1.271-21.912-3.809
			c-4.063-2.539-6.093-7.129-6.093-13.769c0-3.203,0.703-5.741,2.108-7.616c1.406-1.875,3.75-3.749,7.031-5.624
			c-2.735-2.265-3.966-5.292-3.691-9.081c0.272-3.789,1.776-6.659,4.512-8.613c-5.001-2.578-7.5-7.617-7.5-15.116
			c0-6.718,1.835-11.483,5.508-14.296c3.671-2.812,10.154-4.218,19.451-4.218c5.701,0,10.232,0.509,13.593,1.523h17.811
			L934.066,130.833z M910.631,179.461L892.234,177c-3.594,2.97-5.39,6.249-5.39,9.844c0,3.749,1.072,6.17,3.222,7.265
			c2.147,1.093,6.697,1.641,13.651,1.641c6.718,0,11.17-0.567,13.358-1.699c2.186-1.134,3.28-3.535,3.28-7.206
			c0-2.657-0.586-4.395-1.757-5.215C917.428,180.809,914.771,180.087,910.631,179.461z M903.132,151.339
			c5.312,0,9.022-0.722,11.132-2.168c2.109-1.444,3.164-3.964,3.164-7.558c0-3.671-1.036-6.21-3.105-7.617
			c-2.07-1.406-5.8-2.109-11.19-2.109c-5.469,0-9.257,0.703-11.366,2.109s-3.164,3.946-3.164,7.617c0,3.515,1.073,6.016,3.223,7.499
			C893.972,150.597,897.742,151.339,903.132,151.339z"/>
	</g>
	<g>
		<path fill="#FFFFFF" d="M70.203,126.847l-4.57,25.779h12.89l-0.469,2.578H65.281l-4.687,26.716h-2.929l4.687-26.716H35.87
			l-4.688,26.716h-2.929l4.687-26.716H19.348l0.469-2.578h13.475l4.57-25.779H24.27l0.469-2.578h13.592l3.984-23.201h2.93
			l-3.984,23.201h26.482l3.984-23.201h2.929l-3.984,23.201h12.772l-0.469,2.578H70.203z M67.273,126.847H40.792l-4.57,25.779h26.482
			L67.273,126.847z"/>
		<path fill="#FFFFFF" d="M141.797,179.107l0.703,2.109c-6.172,1.406-13.516,2.109-22.029,2.109c-11.093,0-18.847-3.105-23.26-9.315
			c-4.414-6.211-6.621-17.049-6.621-32.517c0-15.468,2.207-26.306,6.621-32.517c4.413-6.21,12.167-9.316,23.26-9.316
			c7.811,0,14.606,0.665,20.389,1.992l-0.703,2.109c-5.859-0.938-12.421-1.406-19.686-1.406c-10,0-16.973,2.891-20.916,8.671
			c-3.946,5.782-5.917,15.936-5.917,30.466c0,14.53,1.972,24.686,5.917,30.466c3.943,5.782,10.916,8.671,20.916,8.671
			C128.829,180.631,135.938,180.124,141.797,179.107z"/>
		<path fill="#FFFFFF" d="M152.341,130.89c3.671-4.413,10.037-6.621,19.1-6.621c9.061,0,15.427,2.208,19.1,6.621
			c3.671,4.414,5.507,12.051,5.507,22.908c0,10.859-1.836,18.496-5.507,22.908c-3.673,4.415-10.039,6.621-19.1,6.621
			c-9.063,0-15.429-2.206-19.1-6.621c-3.672-4.412-5.507-12.049-5.507-22.908C146.834,142.94,148.669,135.304,152.341,130.89z
			 M188.315,132.823c-3.204-3.905-8.829-5.859-16.874-5.859c-8.047,0-13.671,1.954-16.874,5.859
			c-3.204,3.907-4.804,10.897-4.804,20.975c0,10.078,1.6,17.07,4.804,20.975c3.202,3.907,8.827,5.858,16.874,5.858
			c8.045,0,13.669-1.951,16.874-5.858c3.202-3.905,4.804-10.897,4.804-20.975C193.119,143.72,191.517,136.73,188.315,132.823z"/>
		<path fill="#FFFFFF" d="M250.067,99.896v82.024h-2.109l-0.469-9.843c-8.437,7.499-16.21,11.249-23.318,11.249
			c-7.344,0-12.579-2.245-15.702-6.738c-3.125-4.49-4.688-12.087-4.688-22.791c0-10.701,1.562-18.298,4.688-22.791
			c3.123-4.491,8.358-6.738,15.702-6.738c6.639,0,14.451,1.954,23.435,5.859c-0.234-2.031-0.352-5.663-0.352-10.897V99.896H250.067z
			 M247.254,169.382v-36.793c-9.374-3.75-17.069-5.625-23.083-5.625c-6.328,0-10.821,2.032-13.476,6.093
			c-2.657,4.063-3.984,10.976-3.984,20.74c0,9.766,1.327,16.679,3.984,20.741c2.655,4.063,7.148,6.093,13.476,6.093
			c3.592,0,7.127-0.858,10.604-2.578C238.25,176.336,242.41,173.444,247.254,169.382z"/>
		<path fill="#FFFFFF" d="M294.709,155.321h-31.286c0.234,9.297,2.109,15.839,5.625,19.627c3.515,3.79,9.14,5.683,16.874,5.683
			c6.483,0,12.849-0.507,19.1-1.523l0.469,2.109c-4.531,1.406-11.172,2.109-19.92,2.109c-8.906,0-15.312-2.285-19.217-6.854
			c-3.907-4.57-5.859-12.205-5.859-22.909c0-10.701,1.835-18.259,5.507-22.673c3.671-4.413,9.881-6.621,18.631-6.621
			c14.53,0,21.912,5.313,22.146,15.936c0.156,5.156-0.703,8.964-2.578,11.425C302.326,154.09,299.162,155.321,294.709,155.321z
			 M263.423,152.743h31.286c3.358,0,5.76-1.014,7.207-3.046c1.444-2.03,2.089-5.115,1.933-9.257
			c-0.079-4.608-1.699-8.006-4.863-10.194c-3.164-2.186-7.909-3.281-14.237-3.281c-7.734,0-13.203,1.934-16.405,5.8
			C265.141,136.631,263.5,143.292,263.423,152.743z"/>
	</g>
</g>
</svg>
